<svg t="1684254277359" class="icon" viewBox="0 0 1024 1024" version="1.1" xmlns="http://www.w3.org/2000/svg" p-id="1780" width="200" height="200"><path d="M883.89 913.7H126.695c-13.415 0-23.849-10.434-23.849-23.848s10.434-23.85 23.849-23.85H363.69l10.434-80.488h-140.11c-4.472 0-8.944-2.981-10.434-5.962-1.49-4.472-1.49-8.944 0-11.925l22.358-35.773-10.434 1.491h-1.49c-4.472 0-7.453-1.49-10.434-5.962-2.981-4.472-2.981-8.943 0-13.415l74.527-122.224-34.283 4.471h-1.49c-4.472 0-7.453-1.49-10.434-5.962-2.981-4.471-2.981-8.943 0-11.924l20.868-35.773-7.453 1.49c-4.472 1.491-8.943-1.49-11.924-4.471-2.982-4.472-2.982-8.943 0-13.415l56.64-93.904h-23.849c-4.471 0-8.943-2.98-10.433-5.962-1.49-4.472-1.49-8.943 1.49-11.924l46.207-59.622h-11.924c-4.472 0-7.453-1.49-10.434-5.962-1.49-2.981-2.981-7.453 0-11.924l107.319-204.204c1.49-4.472 5.962-5.962 10.433-5.962 4.472 0 8.944 2.98 10.434 5.962l107.32 202.712c1.49 1.49 1.49 4.472 1.49 5.962 0 5.962-5.962 11.925-11.924 11.925h-11.924l44.716 59.621c1.49 1.49 2.981 4.472 2.981 7.453 0 5.962-5.962 11.924-11.924 11.924H526.16l56.64 92.414c1.491 1.49 2.982 4.471 2.982 7.452 0 5.962-5.962 11.925-11.925 11.925h-2.98l-7.453-1.491 19.377 34.282c1.49 1.491 1.49 4.472 1.49 7.453 0 5.962-4.471 11.924-11.924 11.924h-2.981l-34.283-2.98 74.527 122.224c2.981 4.471 2.981 8.943 0 13.414-2.98 4.472-7.452 5.963-11.924 4.472l-10.434-1.49 22.358 34.282c1.49 1.49 2.981 4.471 2.981 7.453 0 5.962-4.471 11.924-11.924 11.924H459.086l11.924 80.489h183.336l5.963-46.207h-95.395c-2.981 0-5.962-1.49-7.453-4.471-1.49-2.981-1.49-5.963 0-7.453l5.963-8.943h34.282c13.415 0 22.358-10.434 22.358-23.849 0-4.472-1.49-10.434-4.472-13.415L605.16 746.76c4.471-1.49 7.452-4.472 10.433-8.943 4.472-7.453 5.963-17.887 0-25.34l-4.471-22.358-19.377-31.301-1.49-2.981-8.944-14.905-20.867-34.283 11.924 1.49h4.471c13.415 0 22.359-10.433 22.359-23.848v-4.471c0-2.982-1.491-4.472-2.982-7.453 0-1.49 0-2.981 1.491-4.472l31.301-40.244h-7.452c-2.981 0-5.963-1.49-7.453-4.472-1.49-2.981-1.49-5.962 0-7.453l73.036-137.13c1.49-2.98 4.472-4.47 7.453-4.47s5.962 1.49 7.453 4.47l73.036 137.13c1.49 1.49 1.49 2.981 1.49 4.472 0 4.472-2.98 7.453-7.452 7.453h-7.453l29.811 40.244c1.49 1.49 1.49 2.981 1.49 5.962 0 4.472-2.98 7.453-7.452 7.453h-16.396l38.754 62.603c1.49 1.49 1.49 2.98 1.49 4.471 0 4.472-2.98 7.453-7.452 7.453h-10.434l13.415 23.849c1.49 1.49 1.49 2.98 1.49 4.471 0 4.472-2.98 7.453-7.452 7.453l-23.849-2.981 50.678 81.98c1.49 2.98 1.49 5.962 0 8.943-1.49 2.98-4.471 4.471-7.452 2.98l-7.453-1.49 14.905 23.849c1.49 1.49 1.49 2.98 1.49 4.471 0 4.472-2.98 7.453-7.452 7.453h-95.394l7.452 46.207h156.507c13.415 0 23.849 10.434 23.849 23.848s-14.906 26.83-28.32 26.83zM262.334 545.537s1.49 0 0 0c1.49 0 1.49 0 0 0z" fill="#2c2c2c" p-id="1781"></path></svg>